<svg width="143" height="44" viewBox="0 0 143 44" fill="none" xmlns="http://www.w3.org/2000/svg">
<mask id="mask0_1_64" style="mask-type:luminance" maskUnits="userSpaceOnUse" x="0" y="0" width="44" height="44">
<path d="M0 0H43.6859V43.6859H0V0Z" fill="white"/>
</mask>
<g mask="url(#mask0_1_64)">
<path d="M43.6859 21.8429C43.6859 22.5578 43.6517 23.2726 43.5812 23.9833C43.5107 24.6961 43.406 25.4029 43.2671 26.1056C43.1281 26.8063 42.955 27.499 42.7456 28.1836C42.5382 28.8682 42.2986 29.5407 42.0247 30.2032C41.7509 30.8636 41.4448 31.51 41.1085 32.1402C40.7703 32.7705 40.4038 33.3846 40.0051 33.9786C39.6085 34.5726 39.1816 35.1464 38.7285 35.7002C38.2755 36.2539 37.7943 36.7835 37.2889 37.2889C36.7835 37.7943 36.2539 38.2735 35.7002 38.7285C35.1485 39.1816 34.5746 39.6085 33.9786 40.0051C33.3846 40.4018 32.7725 40.7703 32.1402 41.1065C31.51 41.4448 30.8636 41.7489 30.2032 42.0227C29.5427 42.2965 28.8682 42.5382 28.1856 42.7456C27.501 42.953 26.8063 43.1261 26.1056 43.2671C25.4029 43.406 24.6961 43.5107 23.9854 43.5812C23.2726 43.6517 22.5598 43.6859 21.8429 43.6859C21.1281 43.6859 20.4153 43.6517 19.7025 43.5812C18.9918 43.5107 18.285 43.406 17.5823 43.2671C16.8816 43.1261 16.1869 42.953 15.5023 42.7456C14.8177 42.5382 14.1452 42.2965 13.4847 42.0227C12.8243 41.7489 12.1779 41.4448 11.5477 41.1065C10.9154 40.7703 10.3033 40.4018 9.70932 40.0051C9.11331 39.6085 8.53945 39.1816 7.98774 38.7285C7.43401 38.2735 6.90445 37.7943 6.39905 37.2889C5.89365 36.7835 5.41241 36.2539 4.95936 35.7002C4.5043 35.1464 4.07944 34.5726 3.68278 33.9786C3.28409 33.3846 2.91763 32.7705 2.57935 32.1402C2.24309 31.51 1.93703 30.8636 1.66319 30.2032C1.38935 29.5407 1.14973 28.8682 0.942339 28.1836C0.732931 27.499 0.559766 26.8063 0.420831 26.1056C0.281897 25.4029 0.177192 24.6961 0.106718 23.9833C0.0362437 23.2726 0 22.5578 0 21.8429C0 21.1281 0.0362437 20.4133 0.106718 19.7025C0.177192 18.9897 0.281897 18.283 0.420831 17.5823C0.559766 16.8796 0.732931 16.1869 0.942339 15.5023C1.14973 14.8177 1.38935 14.1452 1.66319 13.4847C1.93703 12.8243 2.24309 12.1779 2.57935 11.5457C2.91763 10.9154 3.28409 10.3033 3.68278 9.7073C4.07944 9.11331 4.5043 8.53945 4.95936 7.98572C5.41241 7.43401 5.89365 6.90445 6.39905 6.39703C6.90445 5.89163 7.43401 5.41241 7.98774 4.95936C8.53945 4.5043 9.11331 4.07944 9.70932 3.68076C10.3033 3.28409 10.9154 2.91763 11.5477 2.57935C12.1779 2.24309 12.8243 1.93703 13.4847 1.66319C14.1452 1.38935 14.8177 1.14772 15.5023 0.940326C16.1869 0.732931 16.8816 0.559766 17.5823 0.420831C18.285 0.279883 18.9918 0.175179 19.7025 0.104704C20.4153 0.0362436 21.1281 0 21.8429 0C22.5598 0 23.2726 0.0362436 23.9854 0.104704C24.6961 0.175179 25.4029 0.279883 26.1056 0.420831C26.8063 0.559766 27.501 0.732931 28.1856 0.940326C28.8682 1.14772 29.5427 1.38935 30.2032 1.66319C30.8636 1.93703 31.51 2.24309 32.1402 2.57935C32.7725 2.91763 33.3846 3.28409 33.9786 3.68076C34.5746 4.07944 35.1485 4.5043 35.7002 4.95936C36.2539 5.41241 36.7835 5.89163 37.2889 6.39703C37.7943 6.90445 38.2755 7.43401 38.7285 7.98572C39.1816 8.53945 39.6085 9.11331 40.0051 9.7073C40.4038 10.3033 40.7703 10.9154 41.1085 11.5457C41.4448 12.1779 41.7509 12.8243 42.0247 13.4847C42.2986 14.1452 42.5382 14.8177 42.7456 15.5023C42.955 16.1869 43.1281 16.8796 43.2671 17.5823C43.406 18.283 43.5107 18.9897 43.5812 19.7025C43.6517 20.4133 43.6859 21.1281 43.6859 21.8429Z" fill="#2A6B8F"/>
</g>
<path d="M55.3659 31.7456C53.7913 31.7456 52.3717 31.3993 51.1052 30.7066C49.8427 30.0099 48.8521 29.0515 48.1332 27.8313C47.4184 26.6131 47.062 25.2418 47.062 23.7156C47.062 22.1853 47.4184 20.812 48.1332 19.5918C48.8521 18.3736 49.8488 17.4172 51.1213 16.7245C52.3939 16.0278 53.8154 15.6775 55.39 15.6775C56.6143 15.6775 57.7338 15.8849 58.7486 16.2977C59.7675 16.7064 60.6373 17.3165 61.3582 18.126L59.9004 19.5354C58.7184 18.2951 57.2445 17.6749 55.4786 17.6749C54.3128 17.6749 53.2577 17.9387 52.3133 18.4642C51.367 18.9857 50.63 19.7086 50.0984 20.6308C49.5669 21.549 49.3011 22.5779 49.3011 23.7156C49.3011 24.8492 49.5669 25.8781 50.0984 26.8003C50.63 27.7185 51.367 28.4414 52.3133 28.9669C53.2577 29.4884 54.3128 29.7481 55.4786 29.7481C57.2284 29.7481 58.7023 29.1199 59.9004 27.8635L61.3582 29.281C60.6373 30.0864 59.7655 30.6985 58.7406 31.1174C57.7197 31.5362 56.5941 31.7456 55.3659 31.7456Z" fill="#3A3A3A"/>
<path d="M68.8946 31.7053C67.7126 31.7053 66.6495 31.4456 65.7051 30.9241C64.7648 30.3985 64.0299 29.6757 63.4983 28.7575C62.9667 27.8353 62.7009 26.7882 62.7009 25.6164C62.7009 24.4525 62.9667 23.4095 63.4983 22.4913C64.0299 21.5691 64.7648 20.8483 65.7051 20.3328C66.6495 19.8173 67.7126 19.5596 68.8946 19.5596C70.0745 19.5596 71.1337 19.8173 72.0679 20.3328C73.0063 20.8483 73.7432 21.5691 74.2748 22.4913C74.8064 23.4095 75.0722 24.4525 75.0722 25.6164C75.0722 26.7882 74.8064 27.8353 74.2748 28.7575C73.7432 29.6757 73.0063 30.3985 72.0679 30.9241C71.1337 31.4456 70.0745 31.7053 68.8946 31.7053ZM68.8946 29.8206C69.6557 29.8206 70.3403 29.6475 70.9484 29.2971C71.5545 28.9427 72.0297 28.4494 72.374 27.8151C72.7163 27.1769 72.8895 26.4439 72.8895 25.6164C72.8895 24.7948 72.7163 24.0679 72.374 23.4337C72.0297 22.7954 71.5545 22.3041 70.9484 21.9598C70.3403 21.6175 69.6557 21.4443 68.8946 21.4443C68.1315 21.4443 67.4469 21.6175 66.8408 21.9598C66.2327 22.3041 65.7535 22.7954 65.3991 23.4337C65.0487 24.0679 64.8756 24.7948 64.8756 25.6164C64.8756 26.4439 65.0487 27.1769 65.3991 27.8151C65.7535 28.4494 66.2327 28.9427 66.8408 29.2971C67.4469 29.6475 68.1315 29.8206 68.8946 29.8206Z" fill="#3A3A3A"/>
<path d="M88.688 19.6724V31.5684H86.6503V29.7723C86.2154 30.3845 85.6395 30.8597 84.9267 31.1979C84.2179 31.5362 83.4447 31.7054 82.6071 31.7054C81.0224 31.7054 79.774 31.2684 78.8619 30.3925C77.9477 29.5186 77.4927 28.2259 77.4927 26.5185V19.6724H79.6431V26.2688C79.6431 27.4246 79.919 28.2964 80.4727 28.8864C81.0244 29.4784 81.8198 29.7723 82.8568 29.7723C83.9944 29.7723 84.8904 29.43 85.5469 28.7414C86.2073 28.0548 86.5375 27.0822 86.5375 25.8258V19.6724H88.688Z" fill="#3A3A3A"/>
<path d="M94.411 21.6698C94.7855 20.9832 95.3392 20.4597 96.0702 20.0992C96.8051 19.7408 97.6971 19.5596 98.7441 19.5596V21.6456C98.6253 21.6295 98.4622 21.6215 98.2528 21.6215C97.081 21.6215 96.1628 21.9718 95.4983 22.6685C94.8318 23.3672 94.4996 24.3579 94.4996 25.6405V31.5684H92.3491V19.6724H94.411V21.6698Z" fill="#3A3A3A"/>
<path d="M101.415 15.8547H108.036C109.695 15.8547 111.169 16.1849 112.457 16.8454C113.746 17.5018 114.745 18.424 115.453 19.616C116.162 20.804 116.517 22.1692 116.517 23.7156C116.517 25.258 116.162 26.6232 115.453 27.8152C114.745 29.0032 113.746 29.9254 112.457 30.5858C111.169 31.2422 109.695 31.5684 108.036 31.5684H101.415V15.8547ZM107.899 29.6193C109.171 29.6193 110.287 29.3737 111.249 28.8783C112.216 28.385 112.961 27.6924 113.488 26.8003C114.014 25.9104 114.278 24.8814 114.278 23.7156C114.278 22.5457 114.014 21.5168 113.488 20.6308C112.961 19.7409 112.216 19.0482 111.249 18.5529C110.287 18.0595 109.171 17.8119 107.899 17.8119H103.654V29.6193H107.899Z" fill="#3A3A3A"/>
<path d="M129.94 25.6888C129.94 25.8499 129.924 26.0674 129.892 26.3412H120.243C120.376 27.3883 120.835 28.232 121.621 28.8702C122.404 29.5045 123.38 29.8206 124.552 29.8206C125.97 29.8206 127.113 29.3414 127.983 28.3789L129.175 29.7723C128.638 30.4005 127.967 30.8818 127.162 31.214C126.36 31.5422 125.466 31.7053 124.48 31.7053C123.223 31.7053 122.108 31.4476 121.137 30.9321C120.165 30.4126 119.414 29.6898 118.882 28.7655C118.351 27.8373 118.085 26.7882 118.085 25.6164C118.085 24.4686 118.342 23.4296 118.858 22.4994C119.373 21.5711 120.084 20.8483 120.992 20.3328C121.898 19.8173 122.919 19.5596 124.053 19.5596C125.191 19.5596 126.205 19.8173 127.097 20.3328C127.987 20.8483 128.684 21.5711 129.183 22.4994C129.687 23.4296 129.94 24.4928 129.94 25.6888ZM124.053 21.3799C123.022 21.3799 122.156 21.694 121.459 22.3222C120.767 22.9504 120.36 23.7719 120.243 24.7868H127.871C127.752 23.7881 127.343 22.9726 126.646 22.3383C125.954 21.7 125.088 21.3799 124.053 21.3799Z" fill="#3A3A3A"/>
<path d="M143 19.6724L137.789 31.5684H135.59L130.379 19.6724H132.626L136.71 29.2086L140.89 19.6724H143Z" fill="#3A3A3A"/>
<mask id="mask1_1_64" style="mask-type:luminance" maskUnits="userSpaceOnUse" x="7" y="7" width="30" height="30">
<path d="M7.5769 7.57495H36.0182V36.0183H7.5769V7.57495Z" fill="white"/>
</mask>
<g mask="url(#mask1_1_64)">
<mask id="mask2_1_64" style="mask-type:luminance" maskUnits="userSpaceOnUse" x="7" y="7" width="30" height="30">
<path d="M21.7966 7.57495C22.7309 7.57495 23.6571 7.66556 24.5712 7.84879C25.4874 8.03001 26.3774 8.29983 27.2392 8.65824C28.103 9.01464 28.9225 9.45359 29.6977 9.97308C30.4749 10.4906 31.1938 11.0805 31.8542 11.741C32.5147 12.4014 33.1026 13.1203 33.6221 13.8955C34.1416 14.6727 34.5786 15.4922 34.937 16.354C35.2934 17.2178 35.5632 18.1058 35.7464 19.022C35.9276 19.9381 36.0182 20.8623 36.0182 21.7966C36.0182 22.7309 35.9276 23.6551 35.7464 24.5713C35.5632 25.4875 35.2934 26.3774 34.937 27.2392C34.5786 28.101 34.1416 28.9206 33.6221 29.6978C33.1026 30.475 32.5147 31.1918 31.8542 31.8523C31.1938 32.5127 30.4749 33.1027 29.6977 33.6222C28.9225 34.1397 28.103 34.5786 27.2392 34.935C26.3774 35.2934 25.4874 35.5632 24.5712 35.7445C23.6571 35.9277 22.7309 36.0183 21.7966 36.0183C20.8643 36.0183 19.9381 35.9277 19.0239 35.7445C18.1077 35.5632 17.2178 35.2934 16.356 34.935C15.4922 34.5786 14.6726 34.1397 13.8974 33.6222C13.1202 33.1027 12.4014 32.5127 11.7409 31.8523C11.0805 31.1918 10.4925 30.475 9.97302 29.6978C9.45353 28.9206 9.01659 28.101 8.65818 27.2392C8.30178 26.3774 8.03197 25.4875 7.84873 24.5713C7.66751 23.6551 7.5769 22.7309 7.5769 21.7966C7.5769 20.8623 7.66751 19.9381 7.84873 19.022C8.03197 18.1058 8.30178 17.2178 8.65818 16.354C9.01659 15.4922 9.45353 14.6727 9.97302 13.8955C10.4925 13.1203 11.0805 12.4014 11.7409 11.741C12.4014 11.0805 13.1202 10.4906 13.8974 9.97308C14.6726 9.45359 15.4922 9.01464 16.356 8.65824C17.2178 8.29983 18.1077 8.03001 19.0239 7.84879C19.9381 7.66556 20.8643 7.57495 21.7966 7.57495V13.2632C21.2368 13.2632 20.6831 13.3196 20.1334 13.4283C19.5837 13.5371 19.0501 13.7002 18.5326 13.9136C18.0151 14.127 17.5218 14.3908 17.0567 14.7029C16.5915 15.013 16.1607 15.3674 15.764 15.764C15.3673 16.1587 15.0149 16.5896 14.7028 17.0567C14.3907 17.5219 14.129 18.0132 13.9135 18.5307C13.7001 19.0501 13.537 19.5837 13.4283 20.1314C13.3195 20.6811 13.2652 21.2369 13.2652 21.7966C13.2652 22.3564 13.3195 22.9121 13.4283 23.4618C13.537 24.0115 13.7001 24.5451 13.9135 25.0626C14.129 25.5801 14.3907 26.0714 14.7028 26.5385C15.0149 27.0037 15.3673 27.4346 15.764 27.8312C16.1607 28.2259 16.5915 28.5803 17.0567 28.8924C17.5218 29.2024 18.0151 29.4662 18.5326 29.6797C19.0501 29.8951 19.5837 30.0562 20.1334 30.1649C20.6831 30.2757 21.2368 30.33 21.7966 30.33C22.3583 30.33 22.9121 30.2757 23.4618 30.1649C24.0115 30.0562 24.5451 29.8951 25.0625 29.6797C25.58 29.4662 26.0713 29.2024 26.5385 28.8924C27.0036 28.5803 27.4345 28.2259 27.8312 27.8312C28.2278 27.4346 28.5802 27.0037 28.8923 26.5385C29.2044 26.0714 29.4662 25.5801 29.6816 25.0626C29.895 24.5451 30.0561 24.0115 30.1669 23.4618C30.2756 22.9121 30.33 22.3564 30.33 21.7966C30.33 21.2369 30.2756 20.6811 30.1669 20.1314C30.0561 19.5837 29.895 19.0501 29.6816 18.5307C29.4662 18.0132 29.2044 17.5219 28.8923 17.0567C28.5802 16.5896 28.2278 16.1587 27.8312 15.764C27.4345 15.3674 27.0036 15.013 26.5385 14.7029C26.0713 14.3908 25.58 14.127 25.0625 13.9136C24.5451 13.7002 24.0115 13.5371 23.4618 13.4283C22.9121 13.3196 22.3583 13.2632 21.7966 13.2632V7.57495Z" fill="white"/>
</mask>
<g mask="url(#mask2_1_64)">
<path d="M7.5769 7.57495H36.0182V36.0183H7.5769V7.57495Z" fill="white"/>
</g>
</g>
<mask id="mask3_1_64" style="mask-type:luminance" maskUnits="userSpaceOnUse" x="10" y="7" width="27" height="30">
<path d="M10.5046 7.60516H36.278V36.4714H10.5046V7.60516Z" fill="white"/>
</mask>
<g mask="url(#mask3_1_64)">
<mask id="mask4_1_64" style="mask-type:luminance" maskUnits="userSpaceOnUse" x="10" y="7" width="27" height="30">
<path d="M25.3525 8.02806C26.4197 8.30191 27.4426 8.69656 28.4171 9.21001C29.3937 9.72347 30.2978 10.3416 31.1294 11.0645C31.961 11.7894 32.7 12.5988 33.3423 13.4928C33.9866 14.3868 34.5182 15.3453 34.941 16.3641C35.3619 17.383 35.6599 18.4361 35.8371 19.5234C36.0122 20.6127 36.0606 21.7061 35.984 22.8055C35.9055 23.9069 35.7021 24.9821 35.3739 26.0352C35.0437 27.0863 34.6007 28.087 34.039 29.0354C33.4772 29.9858 32.8147 30.8576 32.0516 31.653C31.2864 32.4463 30.4428 33.143 29.5165 33.741C28.5903 34.3411 27.6077 34.8243 26.5687 35.1948C25.5297 35.5633 24.4625 35.809 23.3672 35.9318C22.2718 36.0526 21.1764 36.0486 20.0831 35.9157C18.9877 35.7808 17.9225 35.525 16.8896 35.1445C15.8546 34.7639 14.876 34.2706 13.9579 33.6625C13.0377 33.0544 12.2 32.3497 11.4429 31.5463C11.1852 31.2724 10.9899 30.9583 10.855 30.606C10.7221 30.2536 10.6597 29.8871 10.6718 29.5106C10.6818 29.134 10.7664 28.7736 10.9214 28.4293C11.0745 28.085 11.2899 27.785 11.5638 27.5252C11.8396 27.2675 12.1537 27.0702 12.5061 26.9373C12.8585 26.8024 13.2229 26.742 13.5995 26.754C13.976 26.7641 14.3384 26.8487 14.6807 27.0017C15.025 27.1567 15.3271 27.3722 15.5848 27.646C16.0379 28.1273 16.5412 28.5521 17.093 28.9166C17.6447 29.281 18.2306 29.577 18.8528 29.8046C19.473 30.0341 20.1113 30.1871 20.7677 30.2677C21.4261 30.3482 22.0825 30.3502 22.7389 30.2777C23.3974 30.2053 24.0377 30.0563 24.6599 29.8348C25.2841 29.6133 25.872 29.3233 26.4278 28.9629C26.9835 28.6045 27.4909 28.1877 27.95 27.7105C28.4071 27.2333 28.8058 26.7097 29.142 26.1399C29.4783 25.5721 29.7461 24.97 29.9434 24.3398C30.1407 23.7075 30.2615 23.0632 30.3099 22.4028C30.3562 21.7423 30.326 21.0859 30.2213 20.4335C30.1146 19.7811 29.9354 19.1489 29.6837 18.5368C29.43 17.9246 29.1118 17.3508 28.7252 16.8152C28.3386 16.2776 27.8956 15.7923 27.3963 15.3574C26.8969 14.9245 26.3553 14.552 25.7693 14.2459C25.1834 13.9378 24.5713 13.7002 23.931 13.5351C23.5665 13.4405 23.2323 13.2794 22.9302 13.0539C22.6302 12.8263 22.3825 12.5505 22.1913 12.2263C22 11.9001 21.8771 11.5518 21.8248 11.1772C21.7724 10.8047 21.7926 10.4343 21.8872 10.0698C21.9818 9.70535 22.1429 9.3711 22.3705 9.07108C22.596 8.76905 22.8718 8.5234 23.198 8.3301C23.5222 8.13881 23.8706 8.018 24.2451 7.96363C24.6176 7.91128 24.9881 7.93343 25.3525 8.02806Z" fill="white"/>
</mask>
<g mask="url(#mask4_1_64)">
<path d="M7.57678 7.57497H36.0181V36.0183H7.57678V7.57497Z" fill="#0CC0DF"/>
</g>
</g>
</svg>
