<svg width="286" height="88" viewBox="0 0 286 88" fill="none" xmlns="http://www.w3.org/2000/svg">
<path d="M110.732 63.4912C107.583 63.4912 104.743 62.7985 102.21 61.4132C99.6854 60.0198 97.7041 58.1029 96.2664 55.6625C94.8368 53.2261 94.124 50.4837 94.124 47.4311C94.124 44.3705 94.8368 41.6241 96.2664 39.1836C97.7041 36.7473 99.6975 34.8344 102.243 33.4491C104.788 32.0557 107.631 31.355 110.78 31.355C113.229 31.355 115.468 31.7698 117.497 32.5953C119.535 33.4128 121.275 34.633 122.716 36.2519L119.801 39.0709C117.437 36.5902 114.489 35.3499 110.957 35.3499C108.626 35.3499 106.515 35.8774 104.627 36.9285C102.734 37.9715 101.26 39.4172 100.197 41.2616C99.1337 43.098 98.6021 45.1558 98.6021 47.4311C98.6021 49.6984 99.1337 51.7562 100.197 53.6006C101.26 55.437 102.734 56.8827 104.627 57.9338C106.515 58.9768 108.626 59.4963 110.957 59.4963C114.457 59.4963 117.405 58.2398 119.801 55.7269L122.716 58.562C121.275 60.1729 119.531 61.3971 117.481 62.2347C115.439 63.0724 113.188 63.4912 110.732 63.4912Z" fill="black"/>
<path d="M137.789 63.4107C135.425 63.4107 133.299 62.8912 131.41 61.8482C129.53 60.7971 128.06 59.3514 126.997 57.515C125.934 55.6706 125.402 53.5765 125.402 51.2328C125.402 48.9051 125.934 46.8191 126.997 44.9827C128.06 43.1383 129.53 41.6966 131.41 40.6657C133.299 39.6347 135.425 39.1193 137.789 39.1193C140.149 39.1193 142.267 39.6347 144.136 40.6657C146.013 41.6966 147.487 43.1383 148.55 44.9827C149.613 46.8191 150.144 48.9051 150.144 51.2328C150.144 53.5765 149.613 55.6706 148.55 57.515C147.487 59.3514 146.013 60.7971 144.136 61.8482C142.267 62.8912 140.149 63.4107 137.789 63.4107ZM137.789 59.6413C139.312 59.6413 140.681 59.295 141.897 58.5943C143.109 57.8855 144.059 56.8989 144.748 55.6303C145.433 54.3538 145.779 52.8879 145.779 51.2328C145.779 49.5897 145.433 48.1359 144.748 46.8674C144.059 45.5908 143.109 44.6082 141.897 43.9196C140.681 43.235 139.312 42.8886 137.789 42.8886C136.263 42.8886 134.894 43.235 133.682 43.9196C132.465 44.6082 131.507 45.5908 130.798 46.8674C130.098 48.1359 129.751 49.5897 129.751 51.2328C129.751 52.8879 130.098 54.3538 130.798 55.6303C131.507 56.8989 132.465 57.8855 133.682 58.5943C134.894 59.295 136.263 59.6413 137.789 59.6413Z" fill="black"/>
<path d="M177.376 39.3448V63.1369H173.301V59.5447C172.431 60.769 171.279 61.7194 169.853 62.3959C168.436 63.0725 166.89 63.4107 165.214 63.4107C162.045 63.4107 159.548 62.5369 157.724 60.7851C155.896 59.0373 154.985 56.4519 154.985 53.037V39.3448H159.286V52.5376C159.286 54.8492 159.838 56.5929 160.946 57.7728C162.049 58.9568 163.64 59.5447 165.714 59.5447C167.989 59.5447 169.781 58.8601 171.094 57.4829C172.415 56.1096 173.075 54.1645 173.075 51.6516V39.3448H177.376Z" fill="black"/>
<path d="M188.822 43.3397C189.571 41.9664 190.678 40.9194 192.14 40.1985C193.61 39.4817 195.394 39.1193 197.488 39.1193V43.2913C197.251 43.2591 196.924 43.243 196.506 43.243C194.162 43.243 192.325 43.9437 190.996 45.3371C189.664 46.7345 188.999 48.7158 188.999 51.2811V63.1368H184.698V39.3448H188.822V43.3397Z" fill="black"/>
<path d="M202.83 31.7095H216.071C219.389 31.7095 222.337 32.3699 224.915 33.6908C227.492 35.0036 229.489 36.848 230.907 39.2321C232.324 41.6081 233.033 44.3384 233.033 47.4312C233.033 50.516 232.324 53.2464 230.907 55.6304C229.489 58.0064 227.492 59.8508 224.915 61.1717C222.337 62.4845 219.389 63.1369 216.071 63.1369H202.83V31.7095ZM215.797 59.2387C218.342 59.2387 220.573 58.7474 222.498 57.7567C224.431 56.7701 225.921 55.3847 226.977 53.6007C228.028 51.8208 228.555 49.7629 228.555 47.4312C228.555 45.0915 228.028 43.0337 226.977 41.2617C225.921 39.4818 224.431 38.0964 222.498 37.1058C220.573 36.1191 218.342 35.6238 215.797 35.6238H207.308V59.2387H215.797Z" fill="black"/>
<path d="M259.881 51.3777C259.881 51.6999 259.849 52.1348 259.784 52.6825H240.487C240.752 54.7766 241.671 56.4639 243.241 57.7405C244.808 59.0091 246.761 59.6413 249.105 59.6413C251.94 59.6413 254.227 58.6829 255.967 56.7579L258.351 59.5447C257.276 60.8011 255.935 61.7636 254.324 62.4281C252.721 63.0845 250.933 63.4107 248.96 63.4107C246.447 63.4107 244.216 62.8952 242.275 61.8643C240.33 60.8253 238.827 59.3796 237.764 57.5311C236.701 55.6746 236.17 53.5765 236.17 51.2328C236.17 48.9373 236.685 46.8593 237.716 44.9988C238.747 43.1423 240.168 41.6966 241.985 40.6657C243.797 39.6347 245.839 39.1193 248.106 39.1193C250.381 39.1193 252.411 39.6347 254.195 40.6657C255.975 41.6966 257.368 43.1423 258.367 44.9988C259.374 46.8593 259.881 48.9856 259.881 51.3777ZM248.106 42.7598C246.044 42.7598 244.312 43.388 242.919 44.6444C241.534 45.9009 240.72 47.5439 240.487 49.5736H255.741C255.504 47.5762 254.686 45.9452 253.293 44.6766C251.907 43.4001 250.176 42.7598 248.106 42.7598Z" fill="black"/>
<path d="M286 39.3448L275.578 63.1369H271.18L260.758 39.3448H265.252L273.419 58.4172L281.78 39.3448H286Z" fill="black"/>
<mask id="mask0_8_704" style="mask-type:luminance" maskUnits="userSpaceOnUse" x="0" y="0" width="88" height="88">
<path d="M0 0H87.3718V87.3718H0V0Z" fill="white"/>
</mask>
<g mask="url(#mask0_8_704)">
<path d="M87.3718 43.6859C87.3718 45.1155 87.3033 46.5451 87.1624 47.9667C87.0214 49.3923 86.812 50.8058 86.5341 52.2112C86.2563 53.6127 85.9099 54.998 85.4911 56.3672C85.0763 57.7364 84.5971 59.0815 84.0494 60.4064C83.5017 61.7273 82.8896 63.02 82.2171 64.2804C81.5405 65.5409 80.8076 66.7692 80.0103 67.9572C79.2169 69.1452 78.3632 70.2929 77.4571 71.4003C76.551 72.5078 75.5885 73.5669 74.5777 74.5777C73.5669 75.5885 72.5078 76.547 71.4003 77.4571C70.2969 78.3632 69.1492 79.2169 67.9572 80.0103C66.7692 80.8036 65.5449 81.5405 64.2804 82.2131C63.02 82.8896 61.7273 83.4977 60.4064 84.0454C59.0855 84.5931 57.7364 85.0763 56.3712 85.4911C55.002 85.9059 53.6127 86.2522 52.2112 86.5341C50.8058 86.812 49.3923 87.0214 47.9707 87.1624C46.5451 87.3033 45.1195 87.3718 43.6859 87.3718C42.2563 87.3718 40.8307 87.3033 39.4051 87.1624C37.9835 87.0214 36.57 86.812 35.1646 86.5341C33.7631 86.2522 32.3738 85.9059 31.0046 85.4911C29.6354 85.0763 28.2903 84.5931 26.9694 84.0454C25.6485 83.4977 24.3558 82.8896 23.0954 82.2131C21.8309 81.5405 20.6066 80.8036 19.4186 80.0103C18.2266 79.2169 17.0789 78.3632 15.9755 77.4571C14.868 76.547 13.8089 75.5885 12.7981 74.5777C11.7873 73.5669 10.8248 72.5078 9.91873 71.4003C9.0086 70.2929 8.15889 69.1452 7.36555 67.9572C6.56819 66.7692 5.83526 65.5409 5.1587 64.2804C4.48618 63.02 3.87406 61.7273 3.32638 60.4064C2.77869 59.0815 2.29947 57.7364 1.88468 56.3672C1.46586 54.998 1.11953 53.6127 0.841662 52.2112C0.563793 50.8058 0.354384 49.3923 0.213436 47.9667C0.0724874 46.5451 0 45.1155 0 43.6859C0 42.2563 0.0724874 40.8267 0.213436 39.4051C0.354384 37.9795 0.563793 36.566 0.841662 35.1646C1.11953 33.7591 1.46586 32.3738 1.88468 31.0046C2.29947 29.6354 2.77869 28.2903 3.32638 26.9694C3.87406 25.6485 4.48618 24.3558 5.1587 23.0913C5.83526 21.8309 6.56819 20.6066 7.36555 19.4146C8.15889 18.2266 9.0086 17.0789 9.91873 15.9714C10.8248 14.868 11.7873 13.8089 12.7981 12.7941C13.8089 11.7833 14.868 10.8248 15.9755 9.91873C17.0789 9.0086 18.2266 8.15889 19.4186 7.36152C20.6066 6.56819 21.8309 5.83526 23.0954 5.1587C24.3558 4.48618 25.6485 3.87406 26.9694 3.32638C28.2903 2.77869 29.6354 2.29544 31.0046 1.88065C32.3738 1.46586 33.7631 1.11953 35.1646 0.841662C36.57 0.559765 37.9835 0.350357 39.4051 0.209409C40.8307 0.0724871 42.2563 0 43.6859 0C45.1195 0 46.5451 0.0724871 47.9707 0.209409C49.3923 0.350357 50.8058 0.559765 52.2112 0.841662C53.6127 1.11953 55.002 1.46586 56.3712 1.88065C57.7364 2.29544 59.0855 2.77869 60.4064 3.32638C61.7273 3.87406 63.02 4.48618 64.2804 5.1587C65.5449 5.83526 66.7692 6.56819 67.9572 7.36152C69.1492 8.15889 70.2969 9.0086 71.4003 9.91873C72.5078 10.8248 73.5669 11.7833 74.5777 12.7941C75.5885 13.8089 76.551 14.868 77.4571 15.9714C78.3632 17.0789 79.2169 18.2266 80.0103 19.4146C80.8076 20.6066 81.5405 21.8309 82.2171 23.0913C82.8896 24.3558 83.5017 25.6485 84.0494 26.9694C84.5971 28.2903 85.0763 29.6354 85.4911 31.0046C85.9099 32.3738 86.2563 33.7591 86.5341 35.1646C86.812 36.566 87.0214 37.9795 87.1624 39.4051C87.3033 40.8267 87.3718 42.2563 87.3718 43.6859Z" fill="#2A6B8F"/>
</g>
<mask id="mask1_8_704" style="mask-type:luminance" maskUnits="userSpaceOnUse" x="15" y="15" width="58" height="58">
<path d="M15.1539 15.1499H72.0366V72.0366H15.1539V15.1499Z" fill="white"/>
</mask>
<g mask="url(#mask1_8_704)">
<mask id="mask2_8_704" style="mask-type:luminance" maskUnits="userSpaceOnUse" x="15" y="15" width="58" height="58">
<path d="M43.5933 15.1499C45.4618 15.1499 47.3143 15.3311 49.1426 15.6976C50.9749 16.06 52.7549 16.5997 54.4785 17.3165C56.2061 18.0293 57.8451 18.9072 59.3956 19.9462C60.95 20.9811 62.3877 22.1611 63.7086 23.482C65.0295 24.8028 66.2054 26.2405 67.2444 27.7909C68.2834 29.3454 69.1572 30.9844 69.8741 32.708C70.5869 34.4356 71.1265 36.2116 71.4929 38.0439C71.8554 39.8762 72.0366 41.7247 72.0366 43.5933C72.0366 45.4618 71.8554 47.3103 71.4929 49.1426C71.1265 50.9749 70.5869 52.7549 69.8741 54.4785C69.1572 56.2021 68.2834 57.8411 67.2444 59.3956C66.2054 60.95 65.0295 62.3837 63.7086 63.7045C62.3877 65.0254 60.95 66.2054 59.3956 67.2444C57.8451 68.2793 56.2061 69.1572 54.4785 69.87C52.7549 70.5868 50.9749 71.1265 49.1426 71.4889C47.3143 71.8554 45.4618 72.0366 43.5933 72.0366C41.7287 72.0366 39.8762 71.8554 38.0479 71.4889C36.2156 71.1265 34.4356 70.5868 32.7121 69.87C30.9844 69.1572 29.3454 68.2793 27.795 67.2444C26.2405 66.2054 24.8028 65.0254 23.482 63.7045C22.1611 62.3837 20.9852 60.95 19.9462 59.3956C18.9072 57.8411 18.0333 56.2021 17.3165 54.4785C16.6037 52.7549 16.0641 50.9749 15.6976 49.1426C15.3352 47.3103 15.1539 45.4618 15.1539 43.5933C15.1539 41.7247 15.3352 39.8762 15.6976 38.0439C16.0641 36.2116 16.6037 34.4356 17.3165 32.708C18.0333 30.9844 18.9072 29.3454 19.9462 27.7909C20.9852 26.2405 22.1611 24.8028 23.482 23.482C24.8028 22.1611 26.2405 20.9811 27.795 19.9462C29.3454 18.9072 30.9844 18.0293 32.7121 17.3165C34.4356 16.5997 36.2156 16.06 38.0479 15.6976C39.8762 15.3311 41.7287 15.1499 43.5933 15.1499V26.5264C42.4737 26.5264 41.3663 26.6392 40.2669 26.8567C39.1675 27.0741 38.1003 27.4003 37.0653 27.8272C36.0304 28.2541 35.0437 28.7816 34.1135 29.4058C33.1832 30.026 32.3214 30.7347 31.5281 31.5281C30.7347 32.3174 30.03 33.1792 29.4058 34.1135C28.7816 35.0437 28.2581 36.0263 27.8272 37.0613C27.4003 38.1003 27.0741 39.1675 26.8567 40.2628C26.6392 41.3622 26.5305 42.4737 26.5305 43.5933C26.5305 44.7128 26.6392 45.8243 26.8567 46.9237C27.0741 48.0231 27.4003 49.0902 27.8272 50.1252C28.2581 51.1602 28.7816 52.1428 29.4058 53.0771C30.03 54.0073 30.7347 54.8691 31.5281 55.6624C32.3214 56.4518 33.1832 57.1605 34.1135 57.7847C35.0437 58.4049 36.0304 58.9324 37.0653 59.3593C38.1003 59.7902 39.1675 60.1124 40.2669 60.3298C41.3663 60.5513 42.4737 60.6601 43.5933 60.6601C44.7168 60.6601 45.8243 60.5513 46.9237 60.3298C48.0231 60.1124 49.0902 59.7902 50.1252 59.3593C51.1602 58.9324 52.1428 58.4049 53.0771 57.7847C54.0073 57.1605 54.8691 56.4518 55.6624 55.6624C56.4558 54.8691 57.1605 54.0073 57.7847 53.0771C58.4089 52.1428 58.9324 51.1602 59.3633 50.1252C59.7902 49.0902 60.1124 48.0231 60.3339 46.9237C60.5513 45.8243 60.6601 44.7128 60.6601 43.5933C60.6601 42.4737 60.5513 41.3622 60.3339 40.2628C60.1124 39.1675 59.7902 38.1003 59.3633 37.0613C58.9324 36.0263 58.4089 35.0437 57.7847 34.1135C57.1605 33.1792 56.4558 32.3174 55.6624 31.5281C54.8691 30.7347 54.0073 30.026 53.0771 29.4058C52.1428 28.7816 51.1602 28.2541 50.1252 27.8272C49.0902 27.4003 48.0231 27.0741 46.9237 26.8567C45.8243 26.6392 44.7168 26.5264 43.5933 26.5264V15.1499Z" fill="white"/>
</mask>
<g mask="url(#mask2_8_704)">
<path d="M15.1539 15.1499H72.0366V72.0366H15.1539V15.1499Z" fill="white"/>
</g>
</g>
<mask id="mask3_8_704" style="mask-type:luminance" maskUnits="userSpaceOnUse" x="21" y="15" width="52" height="58">
<path d="M21.0093 15.2103H72.5561V72.9427H21.0093V15.2103Z" fill="white"/>
</mask>
<g mask="url(#mask3_8_704)">
<mask id="mask4_8_704" style="mask-type:luminance" maskUnits="userSpaceOnUse" x="21" y="15" width="52" height="58">
<path d="M50.7051 16.056C52.8395 16.6037 54.8852 17.393 56.8343 18.4199C58.7875 19.4468 60.5956 20.6831 62.2588 22.1288C63.922 23.5786 65.4 25.1975 66.6846 26.9855C67.9733 28.7735 69.0364 30.6904 69.8821 32.7281C70.7238 34.7659 71.3198 36.872 71.6742 39.0467C72.0245 41.2253 72.1212 43.412 71.9682 45.6108C71.8111 47.8136 71.4044 49.9641 70.7479 52.0703C70.0875 54.1724 69.2015 56.1739 68.078 58.0706C66.9544 59.9714 65.6295 61.7152 64.1032 63.3059C62.5729 64.8925 60.8856 66.2859 59.0331 67.4819C57.1807 68.682 55.2155 69.6485 53.1375 70.3895C51.0595 71.1265 48.9251 71.6178 46.7344 71.8634C44.5437 72.105 42.3529 72.097 40.1662 71.8312C37.9755 71.5614 35.8451 71.0499 33.7792 70.2888C31.7093 69.5277 29.7521 68.5411 27.9158 67.3249C26.0754 66.1087 24.4001 64.6992 22.886 63.0924C22.3705 62.5447 21.9799 61.9165 21.71 61.2118C21.4443 60.507 21.3194 59.7741 21.3436 59.021C21.3637 58.268 21.5329 57.5471 21.8429 56.8585C22.149 56.1698 22.5799 55.5698 23.1276 55.0503C23.6793 54.5348 24.3075 54.1402 25.0123 53.8744C25.717 53.6046 26.4459 53.4838 27.199 53.5079C27.952 53.5281 28.6769 53.6972 29.3615 54.0033C30.0502 54.3134 30.6542 54.7443 31.1697 55.2919C32.0758 56.2544 33.0826 57.1041 34.186 57.833C35.2894 58.5619 36.4613 59.1539 37.7057 59.609C38.946 60.0681 40.2226 60.3741 41.5354 60.5352C42.8523 60.6963 44.1651 60.7003 45.4779 60.5553C46.7948 60.4104 48.0754 60.1124 49.3198 59.6694C50.5682 59.2264 51.7441 58.6465 52.8556 57.9257C53.9671 57.2088 54.9819 56.3752 55.9001 55.4208C56.8142 54.4664 57.6116 53.4193 58.2841 52.2797C58.9566 51.144 59.4922 49.9399 59.8869 48.6795C60.2815 47.4149 60.5232 46.1263 60.6198 44.8054C60.7124 43.4845 60.652 42.1717 60.4426 40.8669C60.2292 39.5621 59.8708 38.2976 59.3674 37.0734C58.86 35.8491 58.2237 34.7014 57.4505 33.6302C56.6773 32.555 55.7913 31.5845 54.7926 30.7146C53.7939 29.8488 52.7106 29.1038 51.5387 28.4916C50.3668 27.8755 49.1426 27.4003 47.862 27.0701C47.1331 26.8808 46.4646 26.5586 45.8605 26.1076C45.2605 25.6525 44.7651 25.1008 44.3826 24.4525C44 23.8001 43.7543 23.1034 43.6496 22.3544C43.5449 21.6093 43.5852 20.8684 43.7745 20.1395C43.9638 19.4106 44.2859 18.7421 44.741 18.142C45.192 17.538 45.7437 17.0467 46.3961 16.6601C47.0445 16.2775 47.7412 16.0359 48.4902 15.9271C49.2352 15.8224 49.9762 15.8667 50.7051 16.056Z" fill="white"/>
</mask>
<g mask="url(#mask4_8_704)">
<path d="M15.1539 15.1499H72.0366V72.0366H15.1539V15.1499Z" fill="#0CC0DF"/>
</g>
</g>
</svg>
