<svg width="100" height="100" viewBox="0 0 100 100" fill="none" xmlns="http://www.w3.org/2000/svg">
<path fill-rule="evenodd" clip-rule="evenodd" d="M59.375 10.4167C59.375 10.1404 59.2653 9.87545 59.0699 9.6801C58.8746 9.48475 58.6096 9.375 58.3334 9.375H29.1667C26.1278 9.375 23.2133 10.5822 21.0644 12.7311C18.9156 14.8799 17.7084 17.7944 17.7084 20.8333V79.1667C17.7084 82.2056 18.9156 85.1201 21.0644 87.2689C23.2133 89.4178 26.1278 90.625 29.1667 90.625H70.8334C73.8723 90.625 76.7868 89.4178 78.9356 87.2689C81.0845 85.1201 82.2917 82.2056 82.2917 79.1667V38.1125C82.2917 37.8362 82.182 37.5713 81.9866 37.3759C81.7913 37.1806 81.5263 37.0708 81.25 37.0708H62.5C61.6712 37.0708 60.8764 36.7416 60.2903 36.1555C59.7043 35.5695 59.375 34.7746 59.375 33.9458V10.4167ZM58.4625 55.5667C59.1101 56.0849 59.937 56.3247 60.7614 56.2333C61.5858 56.1419 62.3401 55.7267 62.8584 55.0792C63.3767 54.4316 63.6165 53.6047 63.525 52.7803C63.4336 51.9559 63.0184 51.2016 62.3709 50.6833L51.9792 42.3708C51.4232 41.9157 50.7269 41.6669 50.0084 41.6667H49.975C49.2695 41.6709 48.5863 41.9148 48.0375 42.3583L37.6334 50.6833C36.9858 51.2011 36.5704 51.9548 36.4786 52.7788C36.3868 53.6028 36.6261 54.4295 37.1438 55.0771C37.6615 55.7247 38.4153 56.14 39.2393 56.2318C40.0633 56.3237 40.89 56.0844 41.5375 55.5667L46.875 51.2917V65.625C46.875 66.0354 46.9559 66.4417 47.1129 66.8209C47.27 67.2 47.5002 67.5445 47.7903 67.8347C48.0805 68.1249 48.425 68.3551 48.8042 68.5121C49.1833 68.6692 49.5897 68.75 50 68.75C50.4104 68.75 50.8168 68.6692 51.1959 68.5121C51.5751 68.3551 51.9196 68.1249 52.2098 67.8347C52.4999 67.5445 52.7301 67.2 52.8872 66.8209C53.0442 66.4417 53.125 66.0354 53.125 65.625V51.2917L58.4625 55.5667Z" fill="#2A6B8F"/>
<path d="M65.625 11.7667C65.625 11 66.4292 10.5125 67.025 10.9917C67.5292 11.4 67.9833 11.875 68.3708 12.4167L80.925 29.9042C81.2083 30.3042 80.9 30.8208 80.4083 30.8208H66.6667C66.3904 30.8208 66.1254 30.7111 65.9301 30.5157C65.7347 30.3204 65.625 30.0554 65.625 29.7792V11.7667Z" fill="#2A6B8F"/>
</svg>
