<svg width="95" height="12" viewBox="0 0 95 12" fill="none" xmlns="http://www.w3.org/2000/svg">
<path d="M74.582 10.358C74.3253 9.93333 74.127 9.44333 73.987 8.888C73.8517 8.33267 73.784 7.73067 73.784 7.082C73.784 6.43333 73.8517 5.829 73.987 5.269C74.127 4.70433 74.3253 4.21667 74.582 3.806H74.918C74.6427 4.27267 74.442 4.77667 74.316 5.318C74.19 5.85933 74.127 6.44733 74.127 7.082C74.127 7.71667 74.19 8.30467 74.316 8.846C74.442 9.38733 74.6427 9.89133 74.918 10.358H74.582ZM77.069 9.035C76.7097 9.035 76.3737 8.97433 76.061 8.853C75.753 8.73167 75.5127 8.573 75.34 8.377L75.522 8.104C75.6714 8.27667 75.8814 8.42133 76.152 8.538C76.4274 8.65 76.733 8.706 77.069 8.706C77.5077 8.706 77.8414 8.608 78.07 8.412C78.3034 8.216 78.42 7.95233 78.42 7.621C78.42 7.29433 78.3034 7.033 78.07 6.837C77.8414 6.63633 77.482 6.536 76.992 6.536H76.684V6.277L78.245 4.282L78.294 4.422H75.522V4.1H78.595V4.352L77.041 6.347L76.887 6.235H77.041C77.6244 6.235 78.0607 6.36333 78.35 6.62C78.6394 6.87667 78.784 7.21033 78.784 7.621C78.784 7.89167 78.7187 8.13433 78.588 8.349C78.462 8.56367 78.2707 8.73167 78.014 8.853C77.762 8.97433 77.447 9.035 77.069 9.035ZM79.5583 10.001L79.8313 8.818L79.8663 9.021C79.7777 9.021 79.703 8.993 79.6423 8.937C79.5863 8.881 79.5583 8.811 79.5583 8.727C79.5583 8.643 79.5863 8.573 79.6423 8.517C79.703 8.461 79.773 8.433 79.8523 8.433C79.941 8.433 80.011 8.46333 80.0623 8.524C80.1183 8.58 80.1463 8.64767 80.1463 8.727C80.1463 8.75967 80.144 8.79233 80.1393 8.825C80.1347 8.85767 80.1277 8.89033 80.1183 8.923C80.109 8.95567 80.0973 8.99767 80.0833 9.049L79.8103 10.001H79.5583ZM82.8305 9.035C82.4012 9.035 82.0395 8.937 81.7455 8.741C81.4562 8.545 81.2368 8.26267 81.0875 7.894C80.9382 7.52533 80.8635 7.08667 80.8635 6.578C80.8635 6.02267 80.9545 5.56067 81.1365 5.192C81.3185 4.81867 81.5728 4.53867 81.8995 4.352C82.2262 4.16067 82.6065 4.065 83.0405 4.065C83.2505 4.065 83.4512 4.08367 83.6425 4.121C83.8338 4.15833 84.0042 4.22367 84.1535 4.317L84.0065 4.604C83.8805 4.52467 83.7335 4.46867 83.5655 4.436C83.4022 4.39867 83.2272 4.38 83.0405 4.38C82.4898 4.38 82.0488 4.55967 81.7175 4.919C81.3862 5.27367 81.2205 5.808 81.2205 6.522C81.2205 6.62933 81.2275 6.767 81.2415 6.935C81.2555 7.09833 81.2858 7.25933 81.3325 7.418L81.2065 7.383C81.2392 7.11233 81.3302 6.88133 81.4795 6.69C81.6288 6.49867 81.8202 6.354 82.0535 6.256C82.2868 6.15333 82.5435 6.102 82.8235 6.102C83.1502 6.102 83.4348 6.16267 83.6775 6.284C83.9248 6.40067 84.1162 6.56867 84.2515 6.788C84.3915 7.00733 84.4615 7.264 84.4615 7.558C84.4615 7.85667 84.3892 8.118 84.2445 8.342C84.1045 8.56133 83.9108 8.73167 83.6635 8.853C83.4208 8.97433 83.1432 9.035 82.8305 9.035ZM82.8165 8.727C83.0732 8.727 83.2972 8.68033 83.4885 8.587C83.6798 8.489 83.8292 8.35367 83.9365 8.181C84.0485 8.00367 84.1045 7.79833 84.1045 7.565C84.1045 7.215 83.9855 6.935 83.7475 6.725C83.5142 6.515 83.1898 6.41 82.7745 6.41C82.5085 6.41 82.2728 6.46133 82.0675 6.564C81.8622 6.66667 81.7012 6.80667 81.5845 6.984C81.4725 7.16133 81.4165 7.35967 81.4165 7.579C81.4165 7.77033 81.4702 7.95467 81.5775 8.132C81.6848 8.30467 81.8412 8.447 82.0465 8.559C82.2565 8.671 82.5132 8.727 82.8165 8.727ZM86.5095 9.035C86.1501 9.035 85.8141 8.97433 85.5015 8.853C85.1935 8.73167 84.9531 8.573 84.7805 8.377L84.9625 8.104C85.1118 8.27667 85.3218 8.42133 85.5925 8.538C85.8678 8.65 86.1735 8.706 86.5095 8.706C86.9481 8.706 87.2818 8.608 87.5105 8.412C87.7438 8.216 87.8605 7.95233 87.8605 7.621C87.8605 7.29433 87.7438 7.033 87.5105 6.837C87.2818 6.63633 86.9225 6.536 86.4325 6.536H86.1245V6.277L87.6855 4.282L87.7345 4.422H84.9625V4.1H88.0355V4.352L86.4815 6.347L86.3275 6.235H86.4815C87.0648 6.235 87.5011 6.36333 87.7905 6.62C88.0798 6.87667 88.2245 7.21033 88.2245 7.621C88.2245 7.89167 88.1591 8.13433 88.0285 8.349C87.9025 8.56367 87.7111 8.73167 87.4545 8.853C87.2025 8.97433 86.8875 9.035 86.5095 9.035ZM88.8456 9V8.748L90.9176 6.69C91.1136 6.494 91.2606 6.32367 91.3586 6.179C91.4566 6.02967 91.5219 5.892 91.5546 5.766C91.5919 5.64 91.6106 5.51633 91.6106 5.395C91.6106 5.087 91.5056 4.84433 91.2956 4.667C91.0856 4.485 90.7776 4.394 90.3716 4.394C90.0636 4.394 89.7929 4.44067 89.5596 4.534C89.3309 4.62733 89.1326 4.76967 88.9646 4.961L88.7126 4.737C88.8993 4.52233 89.1349 4.35667 89.4196 4.24C89.7089 4.12333 90.0356 4.065 90.3996 4.065C90.7216 4.065 90.9993 4.11867 91.2326 4.226C91.4706 4.32867 91.6526 4.478 91.7786 4.674C91.9093 4.86533 91.9746 5.094 91.9746 5.36C91.9746 5.51867 91.9513 5.675 91.9046 5.829C91.8626 5.97833 91.7833 6.137 91.6666 6.305C91.5546 6.473 91.3913 6.66433 91.1766 6.879L89.2306 8.818L89.1116 8.678H92.2126V9H88.8456ZM93.1679 10.358H92.8389C93.1096 9.89133 93.3079 9.38733 93.4339 8.846C93.5599 8.30467 93.6229 7.71667 93.6229 7.082C93.6229 6.44733 93.5599 5.85933 93.4339 5.318C93.3079 4.77667 93.1096 4.27267 92.8389 3.806H93.1679C93.4246 4.21667 93.6229 4.70433 93.7629 5.269C93.9029 5.829 93.9729 6.43333 93.9729 7.082C93.9729 7.73067 93.9029 8.33267 93.7629 8.888C93.6229 9.44333 93.4246 9.93333 93.1679 10.358Z" fill="#747474"/>
<path d="M0.817539 8.41V7.51L4.26754 3H5.65754L2.25754 7.51L1.60754 7.31H7.15754V8.41H0.817539ZM4.65754 10V8.41L4.69754 7.31V5.9H5.91754V10H4.65754ZM8.67996 10.07C8.45329 10.07 8.25996 9.99333 8.09996 9.84C7.93996 9.68 7.85996 9.48 7.85996 9.24C7.85996 8.98667 7.93996 8.78667 8.09996 8.64C8.25996 8.48667 8.45329 8.41 8.67996 8.41C8.90663 8.41 9.09996 8.48667 9.25996 8.64C9.41996 8.78667 9.49996 8.98667 9.49996 9.24C9.49996 9.48 9.41996 9.68 9.25996 9.84C9.09996 9.99333 8.90663 10.07 8.67996 10.07ZM13.249 10.1C12.669 10.1 12.1657 10.0133 11.739 9.84C11.3124 9.66667 10.9824 9.42333 10.749 9.11C10.5157 8.79 10.399 8.41667 10.399 7.99C10.399 7.56333 10.5124 7.20333 10.739 6.91C10.9657 6.61667 11.2924 6.39333 11.719 6.24C12.1457 6.08667 12.6557 6.01 13.249 6.01C13.8424 6.01 14.3524 6.08667 14.779 6.24C15.2124 6.39333 15.5424 6.62 15.769 6.92C16.0024 7.21333 16.119 7.57 16.119 7.99C16.119 8.41667 15.999 8.79 15.759 9.11C15.5257 9.42333 15.1924 9.66667 14.759 9.84C14.3324 10.0133 13.829 10.1 13.249 10.1ZM13.249 9.08C13.729 9.08 14.109 8.98 14.389 8.78C14.669 8.58 14.809 8.30333 14.809 7.95C14.809 7.60333 14.669 7.33 14.389 7.13C14.109 6.93 13.729 6.83 13.249 6.83C12.769 6.83 12.3924 6.93 12.119 7.13C11.8457 7.33 11.709 7.60333 11.709 7.95C11.709 8.30333 11.8457 8.58 12.119 8.78C12.3924 8.98 12.769 9.08 13.249 9.08ZM13.249 6.69C12.709 6.69 12.2457 6.62 11.859 6.48C11.4724 6.33333 11.1724 6.12333 10.959 5.85C10.7524 5.57 10.649 5.23667 10.649 4.85C10.649 4.45 10.7557 4.10667 10.969 3.82C11.189 3.52667 11.4957 3.3 11.889 3.14C12.2824 2.98 12.7357 2.9 13.249 2.9C13.769 2.9 14.2257 2.98 14.619 3.14C15.0124 3.3 15.319 3.52667 15.539 3.82C15.759 4.10667 15.869 4.45 15.869 4.85C15.869 5.23667 15.7624 5.57 15.549 5.85C15.3424 6.12333 15.0424 6.33333 14.649 6.48C14.2557 6.62 13.789 6.69 13.249 6.69ZM13.249 5.89C13.6624 5.89 13.989 5.80333 14.229 5.63C14.469 5.45 14.589 5.21 14.589 4.91C14.589 4.59667 14.4657 4.35333 14.219 4.18C13.9724 4.00667 13.649 3.92 13.249 3.92C12.849 3.92 12.529 4.00667 12.289 4.18C12.049 4.35333 11.929 4.59667 11.929 4.91C11.929 5.21 12.0457 5.45 12.279 5.63C12.519 5.80333 12.8424 5.89 13.249 5.89Z" fill="#2E2E2E"/>
<path d="M25.5 8.37603L23.5979 9.52186C23.5139 9.57534 23.4261 9.59825 23.3344 9.59061C23.2427 9.58297 23.1625 9.55242 23.0938 9.49895C23.025 9.44547 22.9716 9.37856 22.9334 9.2982C22.8952 9.21784 22.8875 9.12816 22.9104 9.02916L23.4146 6.86353L21.7302 5.40832C21.6538 5.33957 21.6062 5.2612 21.5872 5.1732C21.5683 5.0852 21.5739 4.99934 21.6042 4.91561C21.6348 4.83159 21.6806 4.76284 21.7417 4.70936C21.8028 4.65589 21.8868 4.62152 21.9938 4.60624L24.2167 4.41145L25.0761 2.37186C25.1143 2.2802 25.1735 2.21145 25.2539 2.16561C25.3343 2.11978 25.4163 2.09686 25.5 2.09686C25.5841 2.09686 25.6661 2.11978 25.7462 2.16561C25.8262 2.21145 25.8855 2.2802 25.924 2.37186L26.7834 4.41145L29.0063 4.60624C29.1132 4.62152 29.1973 4.65589 29.2584 4.70936C29.3195 4.76284 29.3653 4.83159 29.3959 4.91561C29.4264 4.99964 29.4322 5.08565 29.4133 5.17365C29.3943 5.26165 29.3465 5.33988 29.2698 5.40832L27.5854 6.86353L28.0896 9.02916C28.1125 9.12846 28.1049 9.21829 28.0667 9.29865C28.0285 9.37902 27.975 9.44578 27.9063 9.49895C27.8375 9.55242 27.7573 9.58297 27.6657 9.59061C27.574 9.59825 27.4861 9.57534 27.4021 9.52186L25.5 8.37603Z" fill="url(#paint0_linear_4_256)"/>
<path d="M35.5 8.37603L33.5979 9.52186C33.5139 9.57534 33.4261 9.59825 33.3344 9.59061C33.2427 9.58297 33.1625 9.55242 33.0938 9.49895C33.025 9.44547 32.9716 9.37856 32.9334 9.2982C32.8952 9.21784 32.8875 9.12816 32.9104 9.02916L33.4146 6.86353L31.7302 5.40832C31.6538 5.33957 31.6062 5.2612 31.5872 5.1732C31.5683 5.0852 31.5739 4.99934 31.6042 4.91561C31.6348 4.83159 31.6806 4.76284 31.7417 4.70936C31.8028 4.65589 31.8868 4.62152 31.9938 4.60624L34.2167 4.41145L35.0761 2.37186C35.1143 2.2802 35.1735 2.21145 35.2539 2.16561C35.3343 2.11978 35.4163 2.09686 35.5 2.09686C35.5841 2.09686 35.6661 2.11978 35.7462 2.16561C35.8262 2.21145 35.8855 2.2802 35.924 2.37186L36.7834 4.41145L39.0063 4.60624C39.1132 4.62152 39.1973 4.65589 39.2584 4.70936C39.3195 4.76284 39.3653 4.83159 39.3959 4.91561C39.4264 4.99964 39.4322 5.08565 39.4133 5.17365C39.3943 5.26165 39.3465 5.33988 39.2698 5.40832L37.5854 6.86353L38.0896 9.02916C38.1125 9.12846 38.1049 9.21829 38.0667 9.29865C38.0285 9.37902 37.975 9.44578 37.9063 9.49895C37.8375 9.55242 37.7573 9.58297 37.6657 9.59061C37.574 9.59825 37.4861 9.57534 37.4021 9.52186L35.5 8.37603Z" fill="url(#paint1_linear_4_256)"/>
<path d="M45.5 8.37603L43.5979 9.52186C43.5139 9.57534 43.4261 9.59825 43.3344 9.59061C43.2427 9.58297 43.1625 9.55242 43.0938 9.49895C43.025 9.44547 42.9716 9.37856 42.9334 9.2982C42.8952 9.21784 42.8875 9.12816 42.9104 9.02916L43.4146 6.86353L41.7302 5.40832C41.6538 5.33957 41.6062 5.2612 41.5872 5.1732C41.5683 5.0852 41.5739 4.99934 41.6042 4.91561C41.6348 4.83159 41.6806 4.76284 41.7417 4.70936C41.8028 4.65589 41.8868 4.62152 41.9938 4.60624L44.2167 4.41145L45.0761 2.37186C45.1143 2.2802 45.1735 2.21145 45.2539 2.16561C45.3343 2.11978 45.4163 2.09686 45.5 2.09686C45.5841 2.09686 45.6661 2.11978 45.7462 2.16561C45.8262 2.21145 45.8855 2.2802 45.924 2.37186L46.7834 4.41145L49.0063 4.60624C49.1132 4.62152 49.1973 4.65589 49.2584 4.70936C49.3195 4.76284 49.3653 4.83159 49.3959 4.91561C49.4264 4.99964 49.4322 5.08565 49.4133 5.17365C49.3943 5.26165 49.3465 5.33988 49.2698 5.40832L47.5854 6.86353L48.0896 9.02916C48.1125 9.12846 48.1049 9.21829 48.0667 9.29865C48.0285 9.37902 47.975 9.44578 47.9063 9.49895C47.8375 9.55242 47.7573 9.58297 47.6657 9.59061C47.574 9.59825 47.4861 9.57534 47.4021 9.52186L45.5 8.37603Z" fill="url(#paint2_linear_4_256)"/>
<path d="M55.5 8.37603L53.5979 9.52186C53.5139 9.57534 53.4261 9.59825 53.3344 9.59061C53.2427 9.58297 53.1625 9.55242 53.0938 9.49895C53.025 9.44547 52.9716 9.37856 52.9334 9.2982C52.8952 9.21784 52.8875 9.12816 52.9104 9.02916L53.4146 6.86353L51.7302 5.40832C51.6538 5.33957 51.6062 5.2612 51.5872 5.1732C51.5683 5.0852 51.5739 4.99934 51.6042 4.91561C51.6348 4.83159 51.6806 4.76284 51.7417 4.70936C51.8028 4.65589 51.8868 4.62152 51.9938 4.60624L54.2167 4.41145L55.0761 2.37186C55.1143 2.2802 55.1735 2.21145 55.2539 2.16561C55.3343 2.11978 55.4163 2.09686 55.5 2.09686C55.5841 2.09686 55.6661 2.11978 55.7462 2.16561C55.8262 2.21145 55.8855 2.2802 55.924 2.37186L56.7834 4.41145L59.0063 4.60624C59.1132 4.62152 59.1973 4.65589 59.2584 4.70936C59.3195 4.76284 59.3653 4.83159 59.3959 4.91561C59.4264 4.99964 59.4322 5.08565 59.4133 5.17365C59.3943 5.26165 59.3465 5.33988 59.2698 5.40832L57.5854 6.86353L58.0896 9.02916C58.1125 9.12846 58.1049 9.21829 58.0667 9.29865C58.0285 9.37902 57.975 9.44578 57.9063 9.49895C57.8375 9.55242 57.7573 9.58297 57.6657 9.59061C57.574 9.59825 57.4861 9.57534 57.4021 9.52186L55.5 8.37603Z" fill="url(#paint3_linear_4_256)"/>
<path d="M65.5 8.37603L63.5979 9.52186C63.5139 9.57534 63.4261 9.59825 63.3344 9.59061C63.2427 9.58297 63.1625 9.55242 63.0938 9.49895C63.025 9.44547 62.9716 9.37856 62.9334 9.2982C62.8952 9.21784 62.8875 9.12816 62.9104 9.02916L63.4146 6.86353L61.7302 5.40832C61.6538 5.33957 61.6062 5.2612 61.5872 5.1732C61.5683 5.0852 61.5739 4.99934 61.6042 4.91561C61.6348 4.83159 61.6806 4.76284 61.7417 4.70936C61.8028 4.65589 61.8868 4.62152 61.9938 4.60624L64.2167 4.41145L65.0761 2.37186C65.1143 2.2802 65.1735 2.21145 65.2539 2.16561C65.3343 2.11978 65.4163 2.09686 65.5 2.09686C65.5841 2.09686 65.6661 2.11978 65.7462 2.16561C65.8262 2.21145 65.8855 2.2802 65.924 2.37186L66.7834 4.41145L69.0063 4.60624C69.1132 4.62152 69.1973 4.65589 69.2584 4.70936C69.3195 4.76284 69.3653 4.83159 69.3959 4.91561C69.4264 4.99964 69.4322 5.08565 69.4133 5.17365C69.3943 5.26165 69.3465 5.33988 69.2698 5.40832L67.5854 6.86353L68.0896 9.02916C68.1125 9.12846 68.1049 9.21829 68.0667 9.29865C68.0285 9.37902 67.975 9.44578 67.9063 9.49895C67.8375 9.55242 67.7573 9.58297 67.6657 9.59061C67.574 9.59825 67.4861 9.57534 67.4021 9.52186L65.5 8.37603Z" fill="url(#paint4_linear_4_256)"/>
<defs>
<linearGradient id="paint0_linear_4_256" x1="25.5002" y1="2.09686" x2="25.5002" y2="9.59204" gradientUnits="userSpaceOnUse">
<stop stop-color="#F7E015"/>
<stop offset="1" stop-color="#EDBD13" stop-opacity="0.67"/>
</linearGradient>
<linearGradient id="paint1_linear_4_256" x1="35.5002" y1="2.09686" x2="35.5002" y2="9.59204" gradientUnits="userSpaceOnUse">
<stop stop-color="#F7E015"/>
<stop offset="1" stop-color="#EDBD13" stop-opacity="0.67"/>
</linearGradient>
<linearGradient id="paint2_linear_4_256" x1="45.5002" y1="2.09686" x2="45.5002" y2="9.59204" gradientUnits="userSpaceOnUse">
<stop stop-color="#F7E015"/>
<stop offset="1" stop-color="#EDBD13" stop-opacity="0.67"/>
</linearGradient>
<linearGradient id="paint3_linear_4_256" x1="55.5002" y1="2.09686" x2="55.5002" y2="9.59204" gradientUnits="userSpaceOnUse">
<stop stop-color="#F7E015"/>
<stop offset="1" stop-color="#EDBD13" stop-opacity="0.67"/>
</linearGradient>
<linearGradient id="paint4_linear_4_256" x1="65.5002" y1="2.09686" x2="65.5002" y2="9.59204" gradientUnits="userSpaceOnUse">
<stop stop-color="#F7E015"/>
<stop offset="1" stop-color="#EDBD13" stop-opacity="0.67"/>
</linearGradient>
</defs>
</svg>
