<svg width="22" height="22" viewBox="0 0 22 22" fill="none" xmlns="http://www.w3.org/2000/svg">
<path d="M5.5 20.1667C4.99583 20.1667 4.56408 19.987 4.20475 19.6277C3.84542 19.2683 3.66605 18.8369 3.66667 18.3333V9.16666C3.66667 8.66249 3.84633 8.23074 4.20567 7.87141C4.565 7.51207 4.99644 7.33271 5.5 7.33332H6.41667V5.49999C6.41667 4.23193 6.86369 3.15088 7.75775 2.25682C8.6518 1.36277 9.73255 0.916046 11 0.916657C12.2681 0.916657 13.3491 1.36368 14.2432 2.25774C15.1372 3.1518 15.5839 4.23255 15.5833 5.49999V7.33332H16.5C17.0042 7.33332 17.4359 7.51299 17.7952 7.87232C18.1546 8.23166 18.3339 8.6631 18.3333 9.16666V18.3333C18.3333 18.8375 18.1537 19.2692 17.7943 19.6286C17.435 19.9879 17.0036 20.1673 16.5 20.1667H5.5ZM5.5 18.3333H16.5V9.16666H5.5V18.3333ZM11 15.5833C11.5042 15.5833 11.9359 15.4037 12.2952 15.0443C12.6546 14.685 12.8339 14.2535 12.8333 13.75C12.8333 13.2458 12.6537 12.8141 12.2943 12.4547C11.935 12.0954 11.5036 11.916 11 11.9167C10.4958 11.9167 10.0641 12.0963 9.70475 12.4557C9.34542 12.815 9.16605 13.2464 9.16667 13.75C9.16667 14.2542 9.34633 14.6859 9.70567 15.0452C10.065 15.4046 10.4964 15.5839 11 15.5833ZM8.25 7.33332H13.75V5.49999C13.75 4.7361 13.4826 4.0868 12.9479 3.55207C12.4132 3.01735 11.7639 2.74999 11 2.74999C10.2361 2.74999 9.5868 3.01735 9.05208 3.55207C8.51736 4.0868 8.25 4.7361 8.25 5.49999V7.33332Z" fill="#6B6B6B"/>
</svg>
