<svg width="22" height="22" viewBox="0 0 22 22" fill="none" xmlns="http://www.w3.org/2000/svg">
<path d="M2.75 6.41668C2.75 5.93045 2.94315 5.46413 3.28697 5.12031C3.63079 4.7765 4.0971 4.58334 4.58333 4.58334H17.4167C17.9029 4.58334 18.3692 4.7765 18.713 5.12031C19.0568 5.46413 19.25 5.93045 19.25 6.41668V15.5833C19.25 16.0696 19.0568 16.5359 18.713 16.8797C18.3692 17.2235 17.9029 17.4167 17.4167 17.4167H4.58333C4.0971 17.4167 3.63079 17.2235 3.28697 16.8797C2.94315 16.5359 2.75 16.0696 2.75 15.5833V6.41668Z" stroke="#6B6B6B" stroke-width="2" stroke-linecap="round" stroke-linejoin="round"/>
<path d="M2.75 6.41669L11 11.9167L19.25 6.41669" stroke="#6B6B6B" stroke-width="2" stroke-linecap="round" stroke-linejoin="round"/>
</svg>
